HIERARCHY
ROOT Hips
{
	OFFSET 0.000000 0.000000 0.000000 
	CHANNELS 6 Xposition Yposition Zposition Yrotation Xrotation Zrotation
	JOINT Spine
	{
		OFFSET 0.000000 0.072080 0.012321 
		CHANNELS 3 Xrotation Yrotation Zrotation
		JOINT Spine1
		{
			OFFSET 0.000000 0.126984 -0.001294 
			CHANNELS 3 Xrotation Yrotation Zrotation
			JOINT Spine2
			{
				OFFSET 0.000000 0.106559 -0.010096 
				CHANNELS 3 Xrotation Yrotation Zrotation
				JOINT Neck
				{
					OFFSET 0.000000 0.108417 -0.034017 
					CHANNELS 3 Xrotation Yrotation Zrotation
					JOINT Neck1
					{
						OFFSET 0.000000 0.033906 0.007241 
						CHANNELS 3 Xrotation Yrotation Zrotation
						JOINT Head
						{
							OFFSET 0.000000 0.031458 0.006707 
							CHANNELS 3 Xrotation Yrotation Zrotation
							End Site
							{
								OFFSET 0.000000 0.179920 0.000962 
							}
						}
					}
				}
				JOINT LeftShoulder
				{
					OFFSET 0.048002 0.079586 -0.029634 
					CHANNELS 3 Zrotation Xrotation Yrotation
					JOINT LeftArm
					{
						OFFSET 0.096243 -0.008695 -0.014012 
						CHANNELS 3 Zrotation Xrotation Yrotation
						JOINT LeftForeArm
						{
							OFFSET 0.216305 0.000000 0.000000 
							CHANNELS 3 Xrotation Zrotation Yrotation
							JOINT LeftHand
							{
								OFFSET 0.217764 0.000000 0.000000 
								CHANNELS 3 Zrotation Yrotation Xrotation
								JOINT LeftHandThumb1
								{
									OFFSET 0.018582 -0.007835 0.020476 
									CHANNELS 3 Zrotation Xrotation Yrotation
									JOINT LeftHandThumb2
									{
										OFFSET 0.026269 -0.007835 0.022186 
										CHANNELS 3 Zrotation Xrotation Yrotation
										JOINT LeftHandThumb3
										{
											OFFSET 0.035170 -0.010504 0.017018 
											CHANNELS 3 Zrotation Xrotation Yrotation
											End Site
											{
												OFFSET 0.020312 -0.007813 0.007813 
											}
										}
									}
								}
								JOINT LeftHandMiddle1
								{
									OFFSET 0.081749 0.004803 0.003358 
									CHANNELS 3 Zrotation Xrotation Yrotation
									JOINT LeftHandMiddle2
									{
										OFFSET 0.045251 0.000000 0.000000 
										CHANNELS 3 Zrotation Xrotation Yrotation
										JOINT LeftHandMiddle3
										{
											OFFSET 0.029009 0.000000 0.000000 
											CHANNELS 3 Zrotation Xrotation Yrotation
											End Site
											{
												OFFSET 0.017969 0.000000 0.000000 
											}
										}
									}
								}
								JOINT LeftHandIndex1
								{
									OFFSET 0.081207 0.004803 0.021137 
									CHANNELS 3 Zrotation Xrotation Yrotation
									JOINT LeftHandIndex2
									{
										OFFSET 0.043354 0.000000 0.000000 
										CHANNELS 3 Zrotation Xrotation Yrotation
										JOINT LeftHandIndex3
										{
											OFFSET 0.026493 0.000000 0.000000 
											CHANNELS 3 Zrotation Xrotation Yrotation
											End Site
											{
												OFFSET 0.019531 0.000000 0.000000 
											}
										}
									}
								}
								JOINT LeftHandRing1
								{
									OFFSET 0.080666 0.002509 -0.014652 
									CHANNELS 3 Zrotation Xrotation Yrotation
									JOINT LeftHandRing2
									{
										OFFSET 0.042541 0.000000 0.000000 
										CHANNELS 3 Zrotation Xrotation Yrotation
										JOINT LeftHandRing3
										{
											OFFSET 0.029009 0.000000 0.000000 
											CHANNELS 3 Zrotation Xrotation Yrotation
											End Site
											{
												OFFSET 0.015625 0.000000 0.000000 
											}
										}
									}
								}
								JOINT LeftHandPinky1
								{
									OFFSET 0.078227 -0.000612 -0.030993 
									CHANNELS 3 Zrotation Xrotation Yrotation
									JOINT LeftHandPinky2
									{
										OFFSET 0.028721 0.000000 0.000000 
										CHANNELS 3 Zrotation Xrotation Yrotation
										JOINT LeftHandPinky3
										{
											OFFSET 0.021963 0.000000 0.000000 
											CHANNELS 3 Zrotation Xrotation Yrotation
											End Site
											{
												OFFSET 0.022656 0.000000 0.000000 
											}
										}
									}
								}
							}
						}
					}
				}
				JOINT RightShoulder
				{
					OFFSET -0.047970 0.079586 -0.029634 
					CHANNELS 3 Zrotation Xrotation Yrotation
					JOINT RightArm
					{
						OFFSET -0.096274 -0.008695 -0.014012 
						CHANNELS 3 Zrotation Xrotation Yrotation
						JOINT RightForeArm
						{
							OFFSET -0.216305 0.000000 0.000000 
							CHANNELS 3 Xrotation Zrotation Yrotation
							JOINT RightHand
							{
								OFFSET -0.217764 0.000000 0.000000 
								CHANNELS 3 Zrotation Yrotation Xrotation
								JOINT RightHandThumb1
								{
									OFFSET -0.019670 -0.007318 0.019638 
									CHANNELS 3 Zrotation Xrotation Yrotation
									JOINT RightHandThumb2
									{
										OFFSET -0.025498 -0.008492 0.023179 
										CHANNELS 3 Zrotation Xrotation Yrotation
										JOINT RightHandThumb3
										{
											OFFSET -0.034504 -0.010705 0.016680 
											CHANNELS 3 Zrotation Xrotation Yrotation
											End Site
											{
												OFFSET -0.020312 -0.007813 0.007813 
											}
										}
									}
								}
								JOINT RightHandIndex1
								{
									OFFSET -0.081770 0.003825 0.021187 
									CHANNELS 3 Zrotation Xrotation Yrotation
									JOINT RightHandIndex2
									{
										OFFSET -0.042006 0.000000 0.000000 
										CHANNELS 3 Zrotation Xrotation Yrotation
										JOINT RightHandIndex3
										{
											OFFSET -0.026449 0.000000 0.000000 
											CHANNELS 3 Zrotation Xrotation Yrotation
											End Site
											{
												OFFSET -0.020312 0.000000 0.000000 
											}
										}
									}
								}
								JOINT RightHandMiddle1
								{
									OFFSET -0.084059 0.003825 0.003342 
									CHANNELS 3 Zrotation Xrotation Yrotation
									JOINT RightHandMiddle2
									{
										OFFSET -0.043881 0.000000 0.000000 
										CHANNELS 3 Zrotation Xrotation Yrotation
										JOINT RightHandMiddle3
										{
											OFFSET -0.029191 0.000000 0.000000 
											CHANNELS 3 Zrotation Xrotation Yrotation
											End Site
											{
												OFFSET -0.017969 0.000000 0.000000 
											}
										}
									}
								}
								JOINT RightHandRing1
								{
									OFFSET -0.081798 0.003030 -0.015127 
									CHANNELS 3 Zrotation Xrotation Yrotation
									JOINT RightHandRing2
									{
										OFFSET -0.042198 0.000000 0.000000 
										CHANNELS 3 Zrotation Xrotation Yrotation
										JOINT RightHandRing3
										{
											OFFSET -0.026497 0.000000 0.000000 
											CHANNELS 3 Zrotation Xrotation Yrotation
											End Site
											{
												OFFSET -0.017188 0.000000 0.000000 
											}
										}
									}
								}
								JOINT RightHandPinky1
								{
									OFFSET -0.077902 -0.000930 -0.030891 
									CHANNELS 3 Zrotation Xrotation Yrotation
									JOINT RightHandPinky2
									{
										OFFSET -0.028538 0.000000 0.000000 
										CHANNELS 3 Zrotation Xrotation Yrotation
										JOINT RightHandPinky3
										{
											OFFSET -0.021734 0.000000 0.000000 
											CHANNELS 3 Zrotation Xrotation Yrotation
											End Site
											{
												OFFSET -0.022656 0.000000 0.000000 
											}
										}
									}
								}
							}
						}
					}
				}
			}
		}
	}
	JOINT LeftUpLeg
	{
		OFFSET 0.075264 -0.025573 0.000000 
		CHANNELS 3 Xrotation Yrotation Zrotation
		JOINT LeftLeg
		{
			OFFSET 0.000000 -0.326016 -0.013516 
			CHANNELS 3 Xrotation Yrotation Zrotation
			JOINT LeftFoot
			{
				OFFSET 0.000098 -0.306172 -0.006623 
				CHANNELS 3 Xrotation Yrotation Zrotation
				JOINT LeftToeBase
				{
					OFFSET -0.001432 -0.095259 0.064705 
					CHANNELS 3 Xrotation Yrotation Zrotation
					End Site
					{
						OFFSET 0.000000 0.000000 0.079438 
					}
				}
			}
		}
	}
	JOINT RightUpLeg
	{
		OFFSET -0.075264 -0.025573 0.000000 
		CHANNELS 3 Xrotation Yrotation Zrotation
		JOINT RightLeg
		{
			OFFSET 0.000000 -0.326016 -0.013516 
			CHANNELS 3 Xrotation Yrotation Zrotation
			JOINT RightFoot
			{
				OFFSET 0.000098 -0.306172 -0.006623 
				CHANNELS 3 Xrotation Yrotation Zrotation
				JOINT RightToeBase
				{
					OFFSET -0.001432 -0.095259 0.064705 
					CHANNELS 3 Xrotation Yrotation Zrotation
					End Site
					{
						OFFSET 0.000025 0.000000 0.079438 
					}
				}
			}
		}
	}
}
MOTION
Frames: 7
Frame Time: 0.033333
-0.001281 0.736815 0.001034 2.558100 -2.387500 -2.021000 14.319000 1.091300 2.494600 -4.344000 0.844300 -0.932500 -4.329100 0.772000 -1.030100 -0.100900 -1.689900 2.622600 -0.000000 0.000000 -0.000000 -5.840200 -0.460700 -1.540100 -1.341200 2.309100 2.654200 -73.438400 6.840500 -5.766700 13.663400 -8.858900 -10.649900 8.460800 4.619400 5.699100 2.700800 0.603800 20.482700 0.680600 -1.827700 -4.387800 4.714500 -0.264600 4.649700 -24.664700 3.811100 -10.121900 -24.539000 0.529500 -2.442500 -24.409901 0.524700 -2.428800 -20.837099 4.364400 -10.075000 -22.068300 0.377900 -2.172200 -21.951099 0.425900 -2.175500 -29.576799 4.031900 -11.490900 -27.948099 0.685400 -2.754600 -27.774099 0.671500 -2.746400 -34.226898 4.216900 -13.129900 -31.202900 0.842900 -3.053600 -30.991301 0.834200 -3.030800 4.401000 3.468600 -0.030000 67.783203 23.680000 10.733500 8.419700 4.450400 19.909100 -8.687900 -4.694200 -14.861200 4.074300 3.976500 -29.005100 -0.267300 -1.358600 3.555200 -3.136100 -3.040300 4.262500 20.311501 2.484300 5.022300 19.844500 0.224400 1.547900 19.708500 0.266400 1.556200 22.560900 2.064200 6.172300 21.383301 0.322700 1.707600 21.241600 0.310000 1.692700 26.377001 2.311400 8.102800 24.080299 0.405900 1.903300 23.900299 0.394600 1.891200 30.325701 2.630000 10.456300 26.900400 0.504600 2.110500 26.690201 0.497100 2.095100 -29.357500 4.309400 5.564700 65.055099 1.600900 0.518500 -6.554200 0.687800 -7.516500 0.968600 0.000000 -0.000000 -9.585500 -4.764000 5.893600 29.618900 6.957000 0.928100 -14.632800 1.697100 -9.657200 0.871400 -0.000000 0.000000 
-0.000204 0.735425 0.029090 2.585800 -1.808100 -1.900500 13.411100 1.250100 1.630400 -4.063000 0.931400 -0.396900 -4.058100 0.859300 -0.526200 -0.415000 -1.216300 0.632300 -0.000000 0.000000 -0.000000 -5.993100 -0.515500 -1.112200 -2.386600 2.098000 4.718800 -73.341797 6.573000 -7.644700 16.056801 -9.656200 -6.902200 9.397000 3.093600 5.600100 1.435600 1.080500 18.663799 0.938300 -2.677400 -5.262000 4.777200 -0.026600 5.335200 -25.451599 3.609600 -9.144000 -24.097700 0.509500 -2.403800 -24.164200 0.513800 -2.407100 -22.255600 4.284800 -8.869800 -21.238100 0.346500 -2.093000 -21.702200 0.415600 -2.152100 -30.281601 3.887900 -10.330100 -27.670200 0.672900 -2.730900 -27.468100 0.654600 -2.720600 -34.402199 4.129700 -12.255500 -30.923201 0.828000 -3.030400 -30.699100 0.818400 -3.006500 3.044900 3.172500 -0.090600 68.334801 25.164400 10.367500 7.333100 3.848000 22.065100 -8.248800 -6.562200 -14.221800 4.074200 3.976500 -29.005100 -0.267200 -1.358600 3.555200 -3.356800 -2.556700 2.771200 20.657400 2.498000 4.533300 20.885201 0.253900 1.627300 22.130301 0.340100 1.738200 23.489401 2.073500 5.232700 22.597900 0.363900 1.792400 22.448500 0.348400 1.780800 27.013000 2.305700 6.335600 24.829599 0.429000 1.954400 23.900299 0.394600 1.891200 30.837400 2.494600 8.576900 26.900299 0.504500 2.110400 26.690201 0.497200 2.095100 -32.027901 4.884900 4.791000 56.556400 4.711600 0.744100 -9.782900 0.913600 -8.080600 2.891700 -2.339000 1.745500 -7.255200 -4.497000 5.872800 28.959801 6.921400 0.900400 -16.889500 1.872000 -9.751000 0.871400 -0.000000 0.000000 
0.001250 0.733635 0.057711 2.407100 -1.274900 -1.940200 12.622400 1.360300 0.816400 -3.825600 0.906300 0.184800 -3.832700 0.855700 0.040900 -0.800600 -0.471000 -0.339300 -0.000000 0.000000 -0.000000 -6.204400 0.154600 -1.537100 -3.472100 1.871600 6.893700 -73.271599 6.170400 -7.027700 18.446600 -9.548200 -7.235600 10.288900 3.372000 5.590000 0.183000 1.638200 16.767900 1.186500 -3.581200 -6.165000 4.832800 0.195500 5.973000 -26.397100 3.405000 -8.145600 -23.719801 0.492400 -2.369700 -24.012199 0.507000 -2.393800 -23.932100 4.223800 -7.620200 -20.417801 0.316600 -2.014400 -21.550301 0.409400 -2.137700 -31.097601 3.738000 -9.163500 -27.449400 0.663200 -2.712000 -27.216999 0.643300 -2.698500 -34.644001 4.036500 -11.389700 -30.665501 0.814500 -3.008900 -30.427401 0.803900 -2.983800 1.856500 2.937900 0.346400 68.688599 26.096701 10.136400 6.750400 3.075000 24.255699 -7.967700 -7.459600 -13.301300 4.074300 3.976500 -29.005100 -0.267200 -1.358600 3.555200 -3.596900 -1.997400 1.065800 21.053600 2.513200 3.973100 22.077101 0.289400 1.717600 24.904200 0.429000 1.942400 24.550600 2.083000 4.155100 23.989100 0.407000 1.890400 23.830799 0.392600 1.884300 27.737600 2.292800 4.310700 25.688000 0.456400 2.012500 23.900400 0.394600 1.891200 31.409300 2.330500 6.424200 26.900299 0.504500 2.110400 26.690201 0.497100 2.095200 -33.257000 5.736100 4.105300 46.229698 3.912800 0.686200 -10.758000 0.385700 -4.836200 5.466700 1.547700 -2.185600 -4.419300 -4.209300 5.998400 27.447800 7.105600 0.820800 -18.725201 2.010100 -9.789000 0.871500 -0.000000 0.000000 
0.003240 0.731352 0.086996 1.963900 -0.848100 -2.151700 12.111800 1.404800 0.058000 -3.695000 0.719400 0.830900 -3.715600 0.727300 0.698900 -1.196000 0.632500 -0.649400 -0.000000 0.000000 -0.000000 -6.427500 1.538700 -2.768400 -4.561000 1.642300 9.102400 -73.278801 5.742400 -5.957000 20.231701 -9.520200 -7.445500 11.525900 3.317300 5.567000 -0.994500 2.253600 14.877600 1.401300 -4.474200 -7.051500 4.888000 0.426600 6.634300 -27.249001 3.197400 -7.157000 -23.310200 0.473700 -2.331200 -23.813400 0.498100 -2.376200 -25.466900 4.149300 -6.388600 -19.592400 0.287600 -1.934800 -21.349800 0.401200 -2.118900 -31.844900 3.584800 -7.999400 -27.200100 0.652200 -2.690800 -26.938400 0.630800 -2.673900 -34.847599 3.942800 -10.519900 -30.396700 0.800400 -2.986400 -30.145500 0.788900 -2.960200 0.655900 2.753700 1.524100 68.940300 26.843000 9.757200 6.539600 2.039000 26.369499 -7.923100 -7.721100 -12.398200 4.074300 3.976600 -29.004999 -0.267200 -1.358600 3.555200 -3.827100 -1.413100 -0.690700 21.462099 2.528400 3.394900 23.306801 0.328000 1.810000 27.765900 0.531200 2.148900 25.642900 2.091500 3.042000 25.423901 0.456000 1.996900 25.256701 0.440900 1.989900 28.480400 2.272500 2.221000 26.573099 0.488000 2.077500 23.900299 0.394600 1.891200 31.982901 2.152100 4.203500 26.900400 0.504500 2.110400 26.690201 0.497100 2.095100 -33.192001 7.057400 3.653800 34.915501 -0.245500 0.426100 -8.628100 -0.740100 0.499500 6.131100 7.971100 -7.813200 -0.940700 -3.867000 6.245100 24.924700 7.584000 0.649800 -20.059099 2.092800 -9.734100 0.871400 0.000000 0.000000 
0.005852 0.728569 0.116923 1.308800 -0.666800 -2.476900 11.977000 1.415400 -0.620200 -3.671000 0.469800 1.424600 -3.706100 0.558300 1.318600 -1.085800 2.092700 -0.057600 -0.000000 0.000000 -0.000000 -7.121300 3.891700 -5.164000 -5.619400 1.422200 11.268700 -73.207603 5.303800 -4.650900 21.548201 -9.554700 -7.562600 12.918400 3.084100 5.535400 -2.044800 2.891600 13.078800 1.565400 -5.288400 -7.876100 4.947900 0.691500 7.390100 -27.757700 2.986300 -6.209300 -22.774000 0.449900 -2.281100 -23.427401 0.481300 -2.342100 -26.461700 4.027300 -5.240800 -18.746901 0.259200 -1.852900 -20.955200 0.385300 -2.081500 -32.345402 3.430700 -6.847000 -26.836800 0.635100 -2.657000 -26.549900 0.613100 -2.639700 -34.908901 3.853700 -9.633600 -30.084299 0.784200 -2.960200 -29.822701 0.771900 -2.933200 -0.529600 2.636800 3.479600 69.396896 27.793600 8.699900 6.579500 0.639200 28.340401 -7.974400 -8.504200 -11.832300 4.074200 3.976500 -29.005100 -0.267300 -1.358600 3.555200 -4.026800 -0.858600 -2.336700 21.845301 2.542300 2.852000 24.460699 0.366100 1.895900 30.451000 0.636800 2.339400 26.665701 2.098400 1.996100 26.770500 0.503700 2.093800 26.594900 0.488600 2.088100 29.172899 2.247300 0.259400 27.403700 0.518500 2.137700 23.900299 0.394600 1.891200 32.506001 1.977200 2.119800 26.900400 0.504600 2.110400 26.690201 0.497200 2.095200 -32.764599 9.273100 3.536200 24.830500 -3.161800 0.265200 -5.303000 -1.745900 3.243300 5.316800 9.462400 -9.034200 3.470400 -3.420000 6.456800 21.036301 8.341500 0.509800 -20.719900 2.103200 -9.581400 0.871400 -0.000000 0.000000 
0.009228 0.725316 0.147759 0.573600 -0.970400 -2.849500 12.509900 1.419900 -1.074000 -3.736300 0.296500 1.728900 -3.783900 0.465900 1.647600 -1.008400 3.508400 1.652300 -0.000000 0.000000 -0.000000 -7.732200 6.599300 -7.903600 -6.615400 1.222600 13.317100 -72.785599 4.883400 -3.473700 22.641100 -9.619900 -7.622200 14.254100 2.775100 5.498900 -2.926300 3.507500 11.459900 1.667800 -5.953800 -8.593800 5.016100 1.015600 8.311300 -27.674999 2.771600 -5.334200 -22.015900 0.420500 -2.209300 -22.713900 0.452400 -2.277900 -26.518600 3.824000 -4.244000 -17.865999 0.230700 -1.767100 -20.220600 0.357900 -2.011300 -32.422798 3.278200 -5.715600 -26.273500 0.609000 -2.604400 -25.969101 0.586300 -2.586200 -34.724899 3.774500 -8.718400 -29.695700 0.764200 -2.927500 -29.428400 0.751300 -2.899800 -0.936400 2.685900 5.279300 69.555397 28.625401 7.534400 7.232100 -1.250400 29.994400 -7.742400 -9.463900 -11.541300 4.074200 3.976600 -29.005100 -0.267300 -1.358600 3.555200 -4.181400 -0.390700 -3.711200 22.165501 2.553500 2.398100 25.425400 0.399200 1.967200 32.695599 0.733900 2.494200 27.518900 2.103400 1.120700 27.896200 0.545000 2.173000 27.713800 0.529900 2.168500 29.748400 2.221900 -1.380900 28.098301 0.543900 2.186000 23.900299 0.394600 1.891200 32.931599 1.826000 0.377700 26.900400 0.504500 2.110400 26.690201 0.497100 2.095200 -32.352402 12.027500 3.512900 17.900700 -2.057300 0.371800 -3.578900 -2.313400 2.936800 5.003900 4.139900 -4.743500 8.845900 -3.484200 6.326000 16.216600 10.086900 0.639900 -20.215000 2.015300 -9.636000 0.766400 -0.051100 -0.013000 
0.013225 0.721968 0.179597 -0.127100 -1.676700 -3.241700 13.418600 1.468300 -1.379000 -3.748400 0.262000 1.833900 -3.802800 0.496200 1.763100 -1.327900 4.725500 3.643700 -0.000000 0.000000 -0.000000 -7.820600 9.092700 -10.516400 -7.519200 1.053500 15.172500 -72.125504 4.531900 -2.695000 23.625700 -9.694200 -7.647600 15.313200 2.489500 5.466400 -3.688500 4.099800 9.978400 1.710700 -6.461900 -9.218600 5.101700 1.464900 9.583500 -26.663601 2.533100 -4.452600 -20.862301 0.377000 -2.099500 -21.444401 0.404100 -2.159400 -25.150400 3.493100 -3.361600 -16.847200 0.199600 -1.667300 -18.901899 0.312300 -1.884100 -31.891100 3.136800 -4.491800 -25.343100 0.568300 -2.519400 -25.031799 0.545000 -2.499500 -34.166302 3.717600 -7.672900 -29.140100 0.736100 -2.880500 -28.875299 0.722700 -2.852700 -0.801700 2.821700 6.346700 69.457703 29.582500 6.568800 8.151000 -3.086000 30.690399 -7.336500 -9.893700 -12.073900 4.074300 3.976600 -29.005100 -0.267200 -1.358600 3.555200 -4.281000 -0.067600 -4.653800 22.385201 2.561300 2.086500 26.087500 0.422600 2.015700 34.235901 0.804900 2.597600 28.103500 2.106500 0.519300 28.668900 0.575500 2.226600 28.481600 0.560300 2.222100 30.141300 2.202200 -2.506800 28.574900 0.561600 2.218800 23.900299 0.394600 1.891200 33.217499 1.719900 -0.817700 26.900400 0.504600 2.110400 26.690201 0.497100 2.095200 -31.921301 13.112600 3.305300 15.760800 -0.565400 0.498500 -1.994800 -2.477700 4.841000 4.427000 0.718400 -1.742400 12.866900 -5.155300 5.683700 14.896800 13.551000 1.046100 -18.830999 1.824300 -10.333400 0.295600 0.163200 -0.318900 
